<svg width="111" height="41" viewBox="0 0 111 41" fill="none" xmlns="http://www.w3.org/2000/svg">
<path d="M22.9833 25.2569L22.9693 25.2669C22.556 25.5595 22.2493 25.9767 22.0947 26.4565C21.9402 26.9362 21.9463 27.4526 22.112 27.9287L24.3205 34.1136C25.0734 36.2247 27.6222 37.1159 29.5174 35.8971L29.5546 35.8742L24.9107 22.8899C24.4844 23.8303 23.8205 24.6457 22.9833 25.2569V25.2569Z" fill="#D1D1D1"/>
<path d="M37.8906 18.4247C37.3575 13.5794 34.9104 9.14107 31.0853 6.08179C27.2601 3.02252 22.3687 1.59165 17.4822 2.10257L22.12 15.0799C23.5139 15.77 24.5837 16.9696 25.1042 18.4262C25.6246 19.8829 25.5553 21.483 24.9107 22.8899L29.5516 35.8742C29.8407 35.687 30.1258 35.4948 30.4048 35.2916C33.0304 33.375 35.1034 30.8088 36.4169 27.8492C37.7305 24.8896 38.2386 21.64 37.8906 18.4247Z" fill="white"/>
<path d="M17.4822 2.10257H17.439C15.2305 2.33957 13.8251 4.59207 14.563 6.6723L16.923 13.3641C17.0552 13.729 17.3086 14.0383 17.6415 14.2414C17.9745 14.4445 18.3672 14.5291 18.7551 14.4814H18.7691C19.9212 14.3544 21.0856 14.5619 22.121 15.0789L17.4822 2.10257Z" fill="#D1D1D1"/>
<path d="M15.5748 25.0727L7.22375 36.4318L8.74761 37.2285L10.2705 38.0251C11.2643 36.5732 15.4704 30.7289 16.5144 29.3477C16.8588 30.8484 18.4218 37.3509 18.8544 38.993C20.0299 38.8148 21.5076 38.4473 22.6831 38.2691L18.486 26.421L15.5748 25.0727Z" fill="#4FC682"/>
<path d="M0.178686 23.0363C0.119124 21.7922 0.0595622 20.5478 0 19.303L13.3844 19.3299L13.8703 23.1339L4.83558 32.9923L3.905 31.654L2.97543 30.3146C4.12987 28.9763 5.30471 27.6309 6.49997 26.2786C7.71464 24.9044 8.92462 23.5518 10.1299 22.2207C8.52977 22.3296 6.90821 22.4504 5.26523 22.5832C3.54663 22.7233 1.85111 22.8743 0.178686 23.0363Z" fill="#5961AA"/>
<path d="M3.53358 12.8094C5.20901 12.666 12.0242 12.3115 13.5661 12.2309L14.843 15.8476L0.437683 15.755L0.984785 10.9642L10.6489 4.09317L11.8776 7.69399C10.5485 8.5235 4.96407 11.9491 3.53358 12.8094Z" fill="#5961AA"/>
<path d="M19.2731 24.2701C21.4591 24.2701 23.2313 22.5122 23.2313 20.3437C23.2313 18.1751 21.4591 16.4172 19.2731 16.4172C17.087 16.4172 15.3148 18.1751 15.3148 20.3437C15.3148 22.5122 17.087 24.2701 19.2731 24.2701Z" fill="#D1D1D1"/>
<path d="M19.2731 23.4207C20.9862 23.4207 22.375 22.0431 22.375 20.3437C22.375 18.6443 20.9862 17.2666 19.2731 17.2666C17.5599 17.2666 16.1711 18.6443 16.1711 20.3437C16.1711 22.0431 17.5599 23.4207 19.2731 23.4207Z" fill="white"/>
<path d="M41.7178 15.5972V13.2534C42.1426 13.6099 42.604 13.8784 43.1021 14.0591C43.6001 14.2349 44.103 14.3228 44.6108 14.3228C44.9087 14.3228 45.1675 14.2959 45.3872 14.2422C45.6118 14.1885 45.7974 14.1152 45.9438 14.0225C46.0952 13.9248 46.2075 13.8125 46.2808 13.6855C46.354 13.5537 46.3906 13.4121 46.3906 13.2607C46.3906 13.0557 46.332 12.8726 46.2148 12.7114C46.0977 12.5503 45.9365 12.4014 45.7314 12.2646C45.5312 12.1279 45.292 11.9961 45.0137 11.8691C44.7354 11.7422 44.4351 11.6128 44.1128 11.481C43.2925 11.1392 42.6797 10.7217 42.2744 10.2285C41.874 9.73535 41.6738 9.13965 41.6738 8.44141C41.6738 7.89453 41.7837 7.42578 42.0034 7.03516C42.2231 6.63965 42.521 6.31494 42.897 6.06104C43.2778 5.80713 43.7173 5.62158 44.2153 5.50439C44.7134 5.38232 45.2407 5.32129 45.7974 5.32129C46.3442 5.32129 46.8276 5.35547 47.2476 5.42383C47.6724 5.4873 48.063 5.5874 48.4194 5.72412V7.91406C48.2437 7.79199 48.0508 7.68457 47.8408 7.5918C47.6357 7.49902 47.4233 7.42334 47.2036 7.36475C46.9839 7.30127 46.7642 7.25488 46.5444 7.22559C46.3296 7.19629 46.1245 7.18164 45.9292 7.18164C45.6606 7.18164 45.4165 7.2085 45.1968 7.26221C44.9771 7.31104 44.7915 7.38184 44.6401 7.47461C44.4888 7.56738 44.3716 7.67969 44.2886 7.81152C44.2056 7.93848 44.1641 8.08252 44.1641 8.24365C44.1641 8.41943 44.2104 8.57812 44.3032 8.71973C44.396 8.85645 44.5278 8.98828 44.6987 9.11523C44.8696 9.2373 45.0771 9.35938 45.3213 9.48145C45.5654 9.59863 45.8413 9.7207 46.1489 9.84766C46.5688 10.0234 46.9448 10.2114 47.2769 10.4116C47.6138 10.6069 47.9019 10.8291 48.1411 11.0781C48.3804 11.3271 48.5635 11.6128 48.6904 11.9351C48.8174 12.2524 48.8809 12.6235 48.8809 13.0483C48.8809 13.6343 48.7686 14.1274 48.5439 14.5278C48.3242 14.9233 48.0239 15.2456 47.6431 15.4946C47.2622 15.7388 46.8179 15.9146 46.3101 16.022C45.8071 16.1294 45.2749 16.1831 44.7134 16.1831C44.1372 16.1831 43.5879 16.1343 43.0654 16.0366C42.5479 15.939 42.0986 15.7925 41.7178 15.5972ZM53.9565 16.1831C52.7065 16.1831 51.7227 15.834 51.0049 15.1357C50.292 14.4326 49.9355 13.4805 49.9355 12.2793C49.9355 11.0391 50.3066 10.0698 51.0488 9.37158C51.791 8.66846 52.7944 8.31689 54.0591 8.31689C55.3042 8.31689 56.2808 8.66846 56.9888 9.37158C57.6968 10.0698 58.0508 10.9951 58.0508 12.1475C58.0508 13.3926 57.6846 14.3765 56.9521 15.0991C56.2246 15.8218 55.2261 16.1831 53.9565 16.1831ZM54.0151 10.0894C53.4683 10.0894 53.0435 10.2773 52.7407 10.6533C52.438 11.0293 52.2866 11.5615 52.2866 12.25C52.2866 13.6904 52.8677 14.4106 54.0298 14.4106C55.1382 14.4106 55.6924 13.6709 55.6924 12.1914C55.6924 10.79 55.1333 10.0894 54.0151 10.0894ZM67.0669 16H64.291L61.896 12.2793H61.8667V16H59.5522V4.89648H61.8667V11.9644H61.896L64.1299 8.5H66.8765L64.1885 12.0229L67.0669 16ZM72.8384 10.5874C72.5601 10.436 72.2354 10.3604 71.8643 10.3604C71.3613 10.3604 70.9683 10.5459 70.6851 10.917C70.4019 11.2832 70.2603 11.7837 70.2603 12.4185V16H67.9458V8.5H70.2603V9.8916H70.2896C70.6558 8.87598 71.3149 8.36816 72.2671 8.36816C72.5112 8.36816 72.7017 8.39746 72.8384 8.45605V10.5874ZM80.1626 16H77.9727V14.9233H77.9434C77.4404 15.7632 76.6958 16.1831 75.7095 16.1831C74.9819 16.1831 74.4082 15.978 73.9883 15.5679C73.5732 15.1528 73.3657 14.6011 73.3657 13.9126C73.3657 12.4575 74.2275 11.6177 75.9512 11.3931L77.9873 11.1221C77.9873 10.3018 77.543 9.8916 76.6543 9.8916C75.7607 9.8916 74.9111 10.1577 74.1055 10.6899V8.94678C74.4277 8.78076 74.8672 8.63428 75.4238 8.50732C75.9854 8.38037 76.4956 8.31689 76.9546 8.31689C79.0933 8.31689 80.1626 9.38379 80.1626 11.5176V16ZM77.9873 12.9531V12.4478L76.625 12.6235C75.873 12.7212 75.4971 13.0605 75.4971 13.6416C75.4971 13.9053 75.5874 14.1226 75.7681 14.2935C75.9536 14.4595 76.2026 14.5425 76.5151 14.5425C76.9497 14.5425 77.3037 14.3936 77.5771 14.0957C77.8506 13.793 77.9873 13.4121 77.9873 12.9531ZM51.437 36H48.8589L48.1118 33.6636H44.3765L43.6367 36H41.0732L44.8965 25.4971H47.7017L51.437 36ZM47.5698 31.8472L46.4419 28.3169C46.3589 28.0532 46.3003 27.7383 46.2661 27.3721H46.2075C46.1831 27.6797 46.1221 27.9849 46.0244 28.2876L44.8818 31.8472H47.5698ZM58.2046 35.729C57.6821 36.0317 56.9277 36.1831 55.9414 36.1831C54.7891 36.1831 53.8564 35.834 53.1436 35.1357C52.4307 34.4375 52.0742 33.5366 52.0742 32.4331C52.0742 31.1587 52.4551 30.1553 53.2168 29.4229C53.9834 28.6855 55.0063 28.3169 56.2856 28.3169C57.1694 28.3169 57.8091 28.4341 58.2046 28.6685V30.6313C57.7212 30.27 57.1816 30.0894 56.5859 30.0894C55.9219 30.0894 55.3945 30.2847 55.0039 30.6753C54.6182 31.061 54.4253 31.5957 54.4253 32.2793C54.4253 32.9434 54.6108 33.4658 54.9819 33.8467C55.353 34.2227 55.8633 34.4106 56.5127 34.4106C57.0889 34.4106 57.6528 34.23 58.2046 33.8687V35.729ZM65.9683 36H63.7783V34.9233H63.749C63.2461 35.7632 62.5015 36.1831 61.5151 36.1831C60.7876 36.1831 60.2139 35.978 59.7939 35.5679C59.3789 35.1528 59.1714 34.6011 59.1714 33.9126C59.1714 32.4575 60.0332 31.6177 61.7568 31.3931L63.793 31.1221C63.793 30.3018 63.3486 29.8916 62.46 29.8916C61.5664 29.8916 60.7168 30.1577 59.9111 30.6899V28.9468C60.2334 28.7808 60.6729 28.6343 61.2295 28.5073C61.791 28.3804 62.3013 28.3169 62.7603 28.3169C64.8989 28.3169 65.9683 29.3838 65.9683 31.5176V36ZM63.793 32.9531V32.4478L62.4307 32.6235C61.6787 32.7212 61.3027 33.0605 61.3027 33.6416C61.3027 33.9053 61.3931 34.1226 61.5737 34.2935C61.7593 34.4595 62.0083 34.5425 62.3208 34.5425C62.7554 34.5425 63.1094 34.3936 63.3828 34.0957C63.6562 33.793 63.793 33.4121 63.793 32.9531ZM75.1382 36H72.8237V34.9673H72.7944C72.2671 35.7778 71.4932 36.1831 70.4727 36.1831C69.5352 36.1831 68.7808 35.8535 68.2095 35.1943C67.6382 34.5303 67.3525 33.605 67.3525 32.4185C67.3525 31.1782 67.6675 30.1846 68.2974 29.4375C68.9272 28.6904 69.7524 28.3169 70.7729 28.3169C71.7397 28.3169 72.4136 28.6636 72.7944 29.3569H72.8237V24.8965H75.1382V36ZM72.8677 32.3525V31.7886C72.8677 31.3003 72.7261 30.895 72.4429 30.5728C72.1597 30.2505 71.791 30.0894 71.3369 30.0894C70.8242 30.0894 70.4238 30.292 70.1357 30.6973C69.8477 31.0977 69.7036 31.6494 69.7036 32.3525C69.7036 33.0117 69.8428 33.5195 70.1211 33.876C70.3994 34.2324 70.7852 34.4106 71.2783 34.4106C71.7471 34.4106 72.1279 34.2227 72.4209 33.8467C72.7188 33.4707 72.8677 32.9727 72.8677 32.3525ZM83.8247 32.9092H78.9321C79.0103 33.998 79.6963 34.5425 80.9902 34.5425C81.8154 34.5425 82.5405 34.3472 83.1655 33.9565V35.6265C82.4722 35.9976 81.5713 36.1831 80.4629 36.1831C79.252 36.1831 78.312 35.8486 77.6431 35.1797C76.9741 34.5059 76.6396 33.5684 76.6396 32.3672C76.6396 31.1221 77.001 30.1357 77.7236 29.4082C78.4463 28.6807 79.335 28.3169 80.3896 28.3169C81.4834 28.3169 82.3281 28.6416 82.9238 29.291C83.5244 29.9404 83.8247 30.8218 83.8247 31.9351V32.9092ZM81.6787 31.4883C81.6787 30.4141 81.2441 29.877 80.375 29.877C80.0039 29.877 79.6816 30.0308 79.4082 30.3384C79.1396 30.646 78.9761 31.0293 78.9175 31.4883H81.6787ZM97.1108 36H94.8037V31.7227C94.8037 30.6338 94.4033 30.0894 93.6025 30.0894C93.2217 30.0894 92.9116 30.2529 92.6724 30.5801C92.4331 30.9072 92.3135 31.3149 92.3135 31.8032V36H89.999V31.6787C89.999 30.6191 89.606 30.0894 88.8198 30.0894C88.4243 30.0894 88.1069 30.2456 87.8677 30.5581C87.6333 30.8706 87.5161 31.2954 87.5161 31.8325V36H85.2017V28.5H87.5161V29.6719H87.5454C87.7847 29.2715 88.1191 28.9468 88.5488 28.6978C88.9834 28.4438 89.457 28.3169 89.9697 28.3169C91.0293 28.3169 91.7544 28.7832 92.145 29.7158C92.7163 28.7832 93.5562 28.3169 94.6646 28.3169C96.2954 28.3169 97.1108 29.3228 97.1108 31.3345V36ZM106.083 28.5L103.036 36.6006C102.304 38.5488 101.2 39.5229 99.7256 39.5229C99.1641 39.5229 98.7026 39.4595 98.3413 39.3325V37.4868C98.6489 37.6675 98.9834 37.7578 99.3447 37.7578C99.9404 37.7578 100.355 37.4771 100.59 36.9155L100.985 35.9854L97.9385 28.5H100.502L101.901 33.063C101.989 33.3462 102.057 33.6807 102.106 34.0664H102.135C102.179 33.7832 102.26 33.4536 102.377 33.0776L103.791 28.5H106.083Z" fill="white"/>
</svg>
